<svg width="106" height="26" viewBox="0 0 106 26" fill="none" xmlns="http://www.w3.org/2000/svg">
<path d="M10.5292 5.84818C9.40329 4.99678 8.16804 4.55825 6.82232 4.55825C4.87293 4.55825 3.22593 5.29918 1.93489 6.75425C0.644962 8.18143 0 9.99357 0 12.1215C0 14.2494 0.659469 16.1296 1.936 17.5992C3.25382 19.0409 4.91533 19.7818 6.8915 19.7818C8.20932 19.7818 9.43118 19.3835 10.5292 18.5879V19.398H14.6746V0H10.5292V5.84818ZM9.78825 9.40328C10.4064 10.1174 10.7222 11.0648 10.7222 12.1896C10.7222 13.3143 10.4064 14.2483 9.78825 14.9625C9.18458 15.6487 8.38786 15.9779 7.38582 15.9779C6.45186 15.9779 5.71093 15.6353 5.10725 14.9346C4.50358 14.2204 4.20118 13.2731 4.20118 12.1204C4.20118 11.0492 4.51697 10.1431 5.13515 9.43007C5.75333 8.73043 6.50765 8.38674 7.42823 8.38674C8.41687 8.38674 9.18569 8.71592 9.80276 9.40217H9.78937L9.78825 9.40328Z" fill="white"/>
<path d="M64.2605 4.55714C62.0645 4.55714 60.1965 5.29807 58.6868 6.76765C57.177 8.23611 56.4082 10.0761 56.4082 12.2175C56.4082 14.3588 57.1636 16.1709 58.66 17.626C60.143 19.0532 62.0232 19.7818 64.2337 19.7818C65.5649 19.7818 66.924 19.4381 68.2563 18.7385L68.5308 18.6013V14.4414L68.2429 14.7025C68.2429 14.7025 67.8312 15.0729 66.6774 15.5673C66.1831 15.7871 64.7972 15.9924 64.0964 15.9924C63.0665 15.9924 62.243 15.6487 61.5846 14.9491C60.9397 14.2494 60.6094 13.3155 60.6094 12.1896C60.6094 11.0637 60.9386 10.1855 61.6248 9.47136C62.2977 8.75721 63.1346 8.40014 64.1645 8.40014C64.7682 8.40014 65.6475 8.46932 66.3058 8.68803C67.3491 9.0172 68.2418 9.63539 68.2552 9.63539L68.5297 9.82731V5.7366L68.2552 5.58596C67.0054 4.9131 65.6608 4.57053 64.2605 4.57053V4.55714Z" fill="white"/>
<path d="M76.8038 7.62939e-06H72.6718V5.62836H70.3721V9.55505H72.6718V19.3846H76.8038V9.55505H79.1907V5.62836H76.8038V7.62939e-06Z" fill="white"/>
<path d="M37.6681 7.62939e-06H33.5361V5.62836H31.2363V9.55505H33.5361V19.3846H37.6681V9.55505H40.0549V5.62836H37.6681V7.62939e-06Z" fill="white"/>
<path d="M84.4357 7.62939e-06H80.3037V19.3835H84.4357V7.62939e-06Z" fill="white"/>
<path d="M54.6931 12.1628C54.6931 9.82954 54.075 7.9616 52.8531 6.617C51.6033 5.2445 49.9017 4.55825 47.7871 4.55825C45.6726 4.55825 43.9709 5.2724 42.6799 6.67279C41.4167 8.07318 40.7852 9.92661 40.7852 12.1773C40.7852 14.428 41.4435 16.2959 42.7479 17.6963C44.0524 19.0833 45.8087 19.7829 47.9512 19.7829C48.6787 19.7829 49.3783 19.7004 50.0244 19.5497C50.6694 19.3846 51.2876 19.138 51.8366 18.7943C52.3856 18.4506 52.9078 18.0121 53.3876 17.4899L53.594 17.27C53.8685 16.9821 53.9232 16.913 54.2524 16.3361L54.5135 15.883L51.0131 13.9336L50.7519 14.3454C50.2576 15.1142 50.1617 15.1823 49.8593 15.4021L49.6673 15.5393C49.2556 15.8417 48.72 15.9924 48.0471 15.9924C47.1957 15.9924 46.5095 15.7313 45.9739 15.1823C45.5342 14.7292 45.2463 14.139 45.1091 13.4248H54.6641L54.692 12.1751V12.1617L54.6931 12.1628ZM45.0834 10.5984C45.0834 9.15668 46.3332 7.9895 47.8697 7.9895C49.4062 7.9895 50.6571 9.15668 50.6571 10.5984H45.0834Z" fill="white"/>
<path d="M30.8465 12.1628C30.8465 9.82954 30.2283 7.9616 29.0064 6.617C27.7578 5.2445 26.055 4.55825 23.9404 4.55825C21.8259 4.55825 20.1242 5.2724 18.8332 6.67279C17.57 8.07318 16.9385 9.92661 16.9385 12.1773C16.9385 14.428 17.5968 16.2959 18.9013 17.6963C20.2057 19.0833 21.962 19.7829 24.1045 19.7829C24.832 19.7829 25.5317 19.7004 26.1777 19.5497C26.8227 19.3846 27.4409 19.138 27.9899 18.7943C28.5389 18.4506 29.0611 18.0121 29.5409 17.4899L29.7473 17.27C30.0218 16.9821 30.0765 16.913 30.4057 16.3361L30.6668 15.883L27.1664 13.9336L26.9053 14.3454C26.4109 15.1142 26.315 15.1823 26.0126 15.4021L25.8207 15.5393C25.4089 15.8417 24.8733 15.9924 24.2004 15.9924C23.349 15.9924 22.6628 15.7313 22.1272 15.1823C21.6875 14.7292 21.3997 14.139 21.2624 13.4248H30.8174L30.8453 12.1751V12.1617L30.8465 12.1628ZM21.2367 10.5984C21.2367 9.15668 22.4854 7.9895 24.023 7.9895C25.5607 7.9895 26.8093 9.15668 26.8093 10.5984H21.2356H21.2367Z" fill="white"/>
<path d="M97.0787 11.0704C96.8143 10.8528 96.5699 10.6129 96.3456 10.3551L93.9912 15.1008L90.2018 7.9895H85.4248L91.7807 19.4939C91.6155 19.9191 91.4928 20.1802 91.273 20.3866C90.3535 21.3061 88.8572 21.3061 87.9377 20.3866L87.5672 20.0295L84.6426 22.9542L85.013 23.3247C86.2349 24.5465 87.8685 25.2194 89.5981 25.2194C91.3277 25.2194 92.9613 24.5465 94.1831 23.3247C94.8147 22.6797 95.1851 21.8417 95.5288 21.0316C95.6382 20.7705 95.762 20.496 95.8725 20.2494L99.903 12.3904C99.0482 12.2309 98.2549 11.8994 97.5608 11.4308C97.3945 11.3181 97.2339 11.1987 97.0799 11.0715L97.0787 11.0704Z" fill="white"/>
<path d="M101.053 1.65372C98.5156 1.65372 96.458 3.71135 96.458 6.2488C96.458 7.14929 96.718 7.98952 97.1666 8.69921C97.922 9.89428 99.213 10.7167 100.703 10.8294C100.819 10.8383 100.935 10.8439 101.053 10.8439C103.591 10.8439 105.648 8.78624 105.648 6.2488C105.648 3.71135 103.592 1.65372 101.053 1.65372Z" fill="white"/>
</svg>
