<svg width="213" height="104" viewBox="0 0 213 104" fill="none" xmlns="http://www.w3.org/2000/svg">
<path d="M65.1631 93.2544H67.5958L69.9844 98.5623L72.3729 93.2544H74.8056L69.9844 103.229L65.1631 93.2544Z" fill="white"/>
<path d="M84.1596 99.4248L85.9731 100.442C85.575 101.15 85 101.769 84.4029 102.145C83.651 102.632 82.6557 102.853 81.6605 102.853C80.422 102.853 79.4047 102.543 78.5201 101.658C77.6354 100.774 77.1489 99.4911 77.1489 98.0978C77.1489 96.6603 77.6575 95.267 78.6306 94.2718C79.4047 93.4977 80.422 93.0112 81.749 93.0112C83.2307 93.0112 84.1817 93.6525 84.7346 94.2275C85.9289 95.466 86.0395 97.1911 86.0395 98.1642V98.4296H79.3605C79.4047 99.093 79.6922 99.845 80.1566 100.309C80.6653 100.818 81.2845 100.907 81.8153 100.907C82.4125 100.907 82.8548 100.774 83.2971 100.442C83.6731 100.155 83.9606 99.7786 84.1596 99.4248ZM79.5153 96.6603H83.8279C83.7394 96.1516 83.4961 95.7093 83.1644 95.3997C82.8769 95.1343 82.4125 94.8689 81.7047 94.8689C80.9528 94.8689 80.4663 95.1785 80.1788 95.466C79.8691 95.7535 79.6259 96.1958 79.5153 96.6603Z" fill="white"/>
<path d="M89.8622 102.565V93.2544H92.0296V94.1169C92.9585 93.0775 94.02 93.0112 94.5508 93.0112C96.2758 93.0112 97.0057 93.8737 97.2932 94.2718C97.647 94.7804 97.8682 95.4218 97.8682 96.8593V102.565H95.7008V97.3901C95.7008 95.0237 94.8162 94.9574 93.9979 94.9574C93.0248 94.9574 92.0296 95.0901 92.0296 98.0978V102.565H89.8622Z" fill="white"/>
<path d="M106.09 95.2449H104.432V102.565H102.264V95.2449H101.358V93.2544H102.264V89.8486H104.432V93.2544H106.09V95.2449Z" fill="white"/>
<path d="M109.134 93.2544H111.301V98.5844C111.301 99.1373 111.323 99.7786 111.699 100.265C111.987 100.641 112.496 100.907 113.115 100.907C113.734 100.907 114.243 100.641 114.53 100.265C114.906 99.7786 114.928 99.1373 114.928 98.5844V93.2544H117.096V98.6507C117.096 99.845 116.963 100.84 116.1 101.703C115.26 102.543 114.11 102.853 113.071 102.853C112.12 102.853 110.97 102.565 110.129 101.703C109.267 100.84 109.134 99.845 109.134 98.6507V93.2544Z" fill="white"/>
<path d="M121.426 102.565V93.2544H123.593V94.0948C123.837 93.8073 124.191 93.4977 124.5 93.3208C124.92 93.0775 125.341 93.0112 125.827 93.0112C126.358 93.0112 126.933 93.0996 127.53 93.4535L126.645 95.4218C126.159 95.1122 125.761 95.0901 125.54 95.0901C125.075 95.0901 124.611 95.1564 124.191 95.5987C123.593 96.2401 123.593 97.1247 123.593 97.744V102.565H121.426Z" fill="white"/>
<path d="M136.182 99.4248L137.996 100.442C137.597 101.15 137.022 101.769 136.425 102.145C135.673 102.632 134.678 102.853 133.683 102.853C132.444 102.853 131.427 102.543 130.543 101.658C129.658 100.774 129.171 99.4911 129.171 98.0978C129.171 96.6603 129.68 95.267 130.653 94.2718C131.427 93.4977 132.444 93.0112 133.771 93.0112C135.253 93.0112 136.204 93.6525 136.757 94.2275C137.951 95.466 138.062 97.1911 138.062 98.1642V98.4296H131.383C131.427 99.093 131.715 99.845 132.179 100.309C132.688 100.818 133.307 100.907 133.838 100.907C134.435 100.907 134.877 100.774 135.32 100.442C135.696 100.155 135.983 99.7786 136.182 99.4248ZM131.538 96.6603H135.85C135.762 96.1516 135.519 95.7093 135.187 95.3997C134.899 95.1343 134.435 94.8689 133.727 94.8689C132.975 94.8689 132.489 95.1785 132.201 95.466C131.892 95.7535 131.648 96.1958 131.538 96.6603Z" fill="white"/>
<path d="M147.591 94.6477L145.976 95.7093C145.755 95.3554 145.335 94.9131 144.649 94.9131C144.34 94.9131 144.118 95.0237 143.986 95.1564C143.875 95.267 143.787 95.4439 143.787 95.6429C143.787 95.8862 143.897 96.041 144.096 96.1737C144.229 96.2622 144.362 96.3064 144.826 96.5497L145.932 97.1026C146.418 97.3459 146.883 97.5892 147.237 97.9651C147.745 98.4738 147.922 99.0488 147.922 99.6902C147.922 100.531 147.613 101.26 147.104 101.813C146.374 102.609 145.467 102.853 144.494 102.853C143.897 102.853 143.145 102.764 142.482 102.256C141.951 101.858 141.509 101.216 141.288 100.553L143.057 99.7123C143.167 100.022 143.366 100.42 143.565 100.597C143.698 100.73 144.008 100.951 144.516 100.951C144.848 100.951 145.202 100.84 145.401 100.641C145.578 100.464 145.711 100.177 145.711 99.9113C145.711 99.6459 145.622 99.4248 145.423 99.2036C145.158 98.9382 144.848 98.7834 144.494 98.6286L143.698 98.2526C143.278 98.0536 142.769 97.8103 142.415 97.4565C141.929 96.992 141.752 96.4834 141.752 95.8862C141.752 95.1343 142.039 94.4045 142.526 93.8958C142.946 93.4535 143.654 93.0112 144.804 93.0112C145.467 93.0112 145.998 93.1438 146.529 93.4977C146.839 93.6967 147.259 94.0506 147.591 94.6477Z" fill="white"/>
<path d="M174.239 23.0224C172.997 22.577 171.731 22.2488 170.441 22.0378C169.175 21.8268 167.863 21.7095 166.573 21.7095C153.866 21.7095 143.527 32.0485 143.527 44.7554C143.527 57.4622 153.351 67.4261 165.893 67.7777H166.268H166.479V58.7517C158.79 58.7048 152.553 52.4217 152.553 44.7554C152.553 37.089 158.837 30.7356 166.573 30.7356C169.058 30.7356 171.496 31.3921 173.63 32.6346C177.92 35.1432 180.593 39.7852 180.593 44.7319V54.3676C180.71 58.189 182.328 61.7057 185.211 64.2611C186.524 65.4333 188.025 66.3242 189.619 66.9103V44.7085C189.619 42.0827 189.174 39.5273 188.33 37.0891C186.032 30.5715 180.78 25.2965 174.263 22.999L174.239 23.0224Z" fill="white"/>
<path d="M106.414 21.7095C93.7071 21.7095 83.3682 32.0485 83.3682 44.7554C83.3682 46.0448 83.4854 47.3577 83.6964 48.6237C83.9074 49.9131 84.2356 51.2026 84.6811 52.4451C86.9786 58.9627 92.2536 64.2142 98.7711 66.5118C101.209 67.3792 103.788 67.8012 106.391 67.8012H128.592C128.006 66.1835 127.115 64.6831 125.943 63.3937C123.388 60.5334 119.871 58.8923 116.05 58.7985H115.862H106.391C101.42 58.7985 96.7784 56.1259 94.2932 51.8356C93.0507 49.7021 92.3943 47.2639 92.3943 44.7788C92.3943 37.0656 98.6774 30.7591 106.414 30.7591C114.151 30.7591 120.363 36.9953 120.434 44.685H129.46V44.0989C129.085 31.5562 118.98 21.733 106.414 21.733V21.7095Z" fill="white"/>
<path d="M60.2296 0.0234444V25.7654L53.7355 22.9755C52.5399 22.5535 51.2973 22.2487 50.0548 22.0377C48.7888 21.8267 47.4759 21.7095 46.1865 21.7095C33.4796 21.7095 23.1406 32.0485 23.1406 44.7553C23.1406 57.4622 32.9638 67.426 45.5066 67.7777H45.8817H46.0927V58.7516C42.2712 58.7282 38.7311 57.2043 36.1054 54.4613C33.4327 51.6949 32.0495 48.061 32.1902 44.2161C32.448 36.9249 38.356 31.0169 45.6472 30.7356C48.3433 30.6418 50.9457 31.2983 53.2432 32.6346C57.5335 35.1431 60.2062 39.7851 60.2062 44.7319V54.3675C60.3234 58.189 61.9411 61.7056 64.8247 64.2611C66.1376 65.4333 67.6381 66.3242 69.2323 66.9103L69.3026 12.7772C69.3026 6.8692 65.5046 1.85211 60.2296 0V0.0234444Z" fill="white"/>
<path d="M0 0.0234375L0.0468888 55.3287C0.0937775 55.7976 0.164111 56.2431 0.257888 56.712C0.843998 59.6191 2.36788 62.2917 4.5951 64.2845C5.90798 65.4567 7.40842 66.3476 9.00264 66.9337L9.07298 12.8006C9.07298 6.91609 5.27499 1.87554 0 0.0234375Z" fill="white"/>
<path d="M203.684 0.0704346L203.73 55.3523C203.777 55.8212 203.848 56.2901 203.941 56.7355C204.528 59.6192 206.051 62.3153 208.279 64.308C209.592 65.4803 211.092 66.3711 212.686 66.9573L212.757 12.9414C212.757 7.00997 208.959 1.96943 203.684 0.0704346Z" fill="white"/>
</svg>
